#!OML:ASF H:\Terrain\Patient Classification 1\Animal1\Tuesday\Animal1.ASF
:FULLY-SPECIFIED
:DEGREES
634
root 15.8507 15.7937 -11.521 8.85893 7.95435 -0.930408
lowerback 14.8038 -1.88557 -1.91863
upperback -4.80237 -3.33215 -3.08376
thorax -13.8096 -1.5584 -1.4728
lowerneck -10.3289 1.05992 -6.57476
upperneck -4.26944 2.20697 10.475
head 0.239474 1.32718 4.3041
rclavicle 3.58806e-014 3.18055e-014
rhumerus -10.3172 8.49463 17.9663
rradius 24.7154
rwrist -35.1086
rhand -3.48606 9.18391
rfingers 7.12502
rthumb 22.2474 -19.5556
lclavicle 3.58806e-014 3.18055e-014
lhumerus -27.0284 20.3476 -1.03146
lradius 21.8209
lwrist -16.7187
lhand 11.4341 45.5748
lfingers 7.12502
lthumb 36.4853 71.7706
rfemur -29.1108 0.649498 31.0281
rtibia 43.5638
rfoot -17.8047 -34.2249
rtoes 14.2667
lfemur -44.3917 -15.6497 -1.02855
ltibia 60.8621
lfoot 6.27715 -7.23293
ltoes 17.1504
635
root 15.8496 15.7885 -11.5069 8.50034 8.13308 -0.746441
lowerback 14.4969 -1.83132 -2.02277
upperback -4.75297 -3.24053 -2.90206
thorax -13.5424 -1.49925 -1.24336
lowerneck -10.7744 0.993015 -6.50206
upperneck -3.56076 2.07719 10.4999
head 0.530301 1.283 4.3053
rclavicle -1.30204e-014 1.90833e-014
rhumerus -10.3944 8.60665 18.0803
rradius 24.7421
rwrist -35.6839
rhand -3.54203 9.18055
rfingers 7.12502
rthumb 22.1937 -19.5654
lclavicle -1.30204e-014 1.90833e-014
lhumerus -26.8929 19.6126 -0.960537
lradius 21.7532
lwrist -16.492
lhand 11.0096 45.95
lfingers 7.12502
lthumb 36.0833 72.246
rfemur -28.7531 0.37334 30.8989
rtibia 43.7815
rfoot -18.0001 -34.4334
rtoes 14.113
lfemur -44.3651 -15.9913 -1.30274
ltibia 61.3466
lfoot 6.57758 -7.44982
ltoes 17.0977
636
root 15.8518 15.7827 -11.4951 8.0649 8.33637 -0.682498
lowerback 14.3859 -1.79185 -1.96536
upperback -4.7882 -3.14702 -2.69888
thorax -13.5028 -1.44973 -1.07676
lowerneck -10.7963 0.907258 -6.24345
upperneck -3.05895 1.89625 10.3172
head 0.699712 1.19405 4.20315
rclavicle 1.02374e-014 -1.59028e-014
rhumerus -10.4262 7.64908 18.1617
rradius 24.6573
rwrist -34.9331
rhand -2.79231 9.40232
rfingers 7.12502
rthumb 22.9133 -19.2562
lclavicle 1.02374e-014 -1.59028e-014
lhumerus -26.8107 19.7328 -1.23721
lradius 21.5352
lwrist -17.2992
lhand 10.7309 46.0072
lfingers 7.12502
lthumb 35.8192 72.3679
rfemur -28.2959 0.160726 30.8576
rtibia 43.9702
rfoot -18.6964 -34.44
rtoes 14.7558
lfemur -44.2625 -16.3794 -1.47115
ltibia 61.8261
lfoot 6.95777 -7.50623
ltoes 15.2144
637
root 15.8589 15.7673 -11.4845 7.6758 8.55669 -0.836404
lowerback 14.2214 -1.76779 -1.68572
upperback -4.8351 -3.01965 -2.41677
thorax -13.4506 -1.39933 -0.957909
lowerneck -10.5239 0.915206 -6.05815
upperneck -3.03145 1.86018 9.78506
head 0.737342 1.15612 4.42356
rclavicle -3.77691e-015 -2.22639e-014
rhumerus -10.4743 7.28708 18.2608
rradius 24.6896
rwrist -34.8979
rhand -3.15711 9.05434
rfingers 7.12502
rthumb 22.5632 -19.6472
lclavicle -3.77691e-015 -2.22639e-014
lhumerus -26.7653 19.5378 -1.3933
lradius 21.3841
lwrist -17.5741
lhand 10.3169 46.1047
lfingers 7.12502
lthumb 35.4268 72.56
rfemur -27.9234 0.00992799 31.0261
rtibia 44.1584
rfoot -19.591 -34.233
rtoes 16.3694
lfemur -44.3045 -16.7389 -1.37384
ltibia 62.3563
lfoot 7.70094 -7.33069
ltoes 15.9988
638
root 15.8673 15.7449 -11.4764 7.33156 8.7114 -1.02883
lowerback 13.932 -1.75372 -1.3997
upperback -4.81012 -2.89565 -2.10628
thorax -13.2374 -1.35101 -0.814214
lowerneck -10.4972 0.983599 -5.93735
upperneck -2.92763 1.93028 9.70685
head 0.761345 1.18903 4.37399
rclavicle -3.1408e-014 -4.77083e-015
rhumerus -10.4697 7.75778 18.3244
rradius 24.8026
rwrist -36.0384
rhand -4.0258 8.72534
rfingers 7.12502
rthumb 21.7292 -20.0751
lclavicle -3.1408e-014 -4.77083e-015
lhumerus -26.797 18.4589 -1.26819
lradius 21.4959
lwrist -16.7884
lhand 10.3728 46.2756
lfingers 7.12502
lthumb 35.4799 72.7183
rfemur -27.6477 -0.0841934 31.2369
rtibia 44.3583
rfoot -20.1779 -34.1117
rtoes 17.9489
lfemur -44.3943 -16.9489 -1.26184
ltibia 62.9175
lfoot 8.29069 -7.22218
ltoes 17.261
639
root 15.8744 15.7237 -11.4711 7.04568 8.8518 -1.19311
lowerback 13.5989 -1.76297 -1.17588
upperback -4.8228 -2.81444 -1.76412
thorax -13.0378 -1.31563 -0.591594
lowerneck -10.5522 1.02756 -5.91641
upperneck -2.64178 1.96945 9.66718
head 0.86213 1.21155 4.36206
rclavicle 1.98785e-014 3.49861e-014
rhumerus -10.2595 7.39742 18.3819
rradius 24.7108
rwrist -36.3676
rhand -3.99986 8.90112
rfingers 7.12502
rthumb 21.7541 -19.8964
lclavicle 1.98785e-014 3.49861e-014
lhumerus -26.9468 17.7346 -1.24257
lradius 21.5955
lwrist -16.4531
lhand 10.3222 46.5557
lfingers 7.12502
lthumb 35.4318 73.0098
rfemur -27.4728 -0.135894 31.4206
rtibia 44.5696
rfoot -20.2742 -34.3826
rtoes 17.9626
lfemur -44.5802 -17.0652 -1.15229
ltibia 63.4599
lfoot 8.88763 -7.38835
ltoes 17.3554
640
root 15.8821 15.7059 -11.4636 6.74352 8.95688 -1.38241
lowerback 13.3734 -1.75716 -0.962722
upperback -4.89396 -2.71612 -1.37484
thorax -12.9692 -1.2675 -0.312351
lowerneck -10.8197 1.02805 -5.96569
upperneck -2.11718 1.95186 9.55057
head 1.08499 1.21157 4.34329
rclavicle -2.48481e-015 -7.95139e-016
rhumerus -10.0667 6.50133 18.4832
rradius 24.6893
rwrist -35.9718
rhand -3.93278 9.02244
rfingers 7.12502
rthumb 21.8185 -19.7676
lclavicle -2.48481e-015 -7.95139e-016
lhumerus -27.149 17.8437 -1.43715
lradius 21.4804
lwrist -17.0677
lhand 10.1483 46.4546
lfingers 7.12502
lthumb 35.267 72.9479
rfemur -27.2537 -0.233373 31.6345
rtibia 44.7576
rfoot -20.2328 -34.6716
rtoes 17.901
lfemur -44.697 -17.1899 -1.02112
ltibia 63.948
lfoot 9.77153 -7.19298
ltoes 19.3508
641
root 15.892 15.691 -11.4534 6.42988 9.08026 -1.51292
lowerback 13.1209 -1.73725 -0.794702
upperback -4.87821 -2.60978 -1.01621
thorax -12.7845 -1.21461 -0.0459049
lowerneck -11.2847 1.00956 -5.92346
upperneck -1.61075 1.91005 9.34329
head 1.34089 1.20068 4.27776
rclavicle 4.30369e-014 1.11319e-014
rhumerus -10.0207 6.01553 18.6265
rradius 24.7673
rwrist -36.0649
rhand -3.71702 8.90035
rfingers 7.12502
rthumb 22.0257 -19.8654
lclavicle 4.30369e-014 1.11319e-014
lhumerus -27.2286 17.8417 -1.5452
lradius 21.3603
lwrist -17.3749
lhand 10.1691 46.1575
lfingers 7.12502
lthumb 35.2867 72.6461
rfemur -26.9558 -0.394278 31.7797
rtibia 44.9037
rfoot -20.4476 -34.6325
rtoes 19.0861
lfemur -44.6499 -17.4059 -0.974024
ltibia 64.3435
lfoot 10.3922 -6.60329
ltoes 23.9226
642
root 15.9002 15.6799 -11.4468 6.10284 9.26614 -1.6722
lowerback 12.8829 -1.74614 -0.537247
upperback -4.83199 -2.53445 -0.712233
thorax -12.582 -1.18662 0.116715
lowerneck -11.5501 0.970714 -5.78204
upperneck -1.35259 1.83699 9.17012
head 1.48167 1.16755 4.1949
rclavicle -1.60767e-014 -7.15625e-015
rhumerus -9.8997 6.19891 18.7004
rradius 24.7147
rwrist -36.9924
rhand -3.40067 8.29062
rfingers 7.12502
rthumb 22.3294 -20.4391
lclavicle -1.60767e-014 -7.15625e-015
lhumerus -27.1456 17.1508 -1.4675
lradius 21.3978
lwrist -16.8644
lhand 10.0188 46.4808
lfingers 7.12502
lthumb 35.1442 73.0031
rfemur -26.6406 -0.547453 31.9531
rtibia 45.0132
rfoot -20.6323 -34.6029
rtoes 19.3144
lfemur -44.6347 -17.6338 -0.863488
ltibia 64.6899
lfoot 10.8896 -6.56482
ltoes 26.0807
643
root 15.9041 15.6738 -11.4431 5.69816 9.37132 -1.82827
lowerback 12.84 -1.772 -0.325199
upperback -4.84156 -2.49528 -0.410697
thorax -12.5611 -1.17001 0.317607
lowerneck -11.5109 0.968001 -5.79023
upperneck -1.30151 1.82806 9.22329
head 1.49232 1.16376 4.21545
rclavicle -1.26725e-015 7.55382e-015
rhumerus -9.5887 6.55653 18.6296
rradius 24.6597
rwrist -37.9559
rhand -3.93613 7.68463
rfingers 7.12502
rthumb 21.8153 -21.1058
lclavicle -1.26725e-015 7.55382e-015
lhumerus -27.1912 16.2664 -1.46608
lradius 21.4921
lwrist -16.2763
lhand 9.87921 46.9613
lfingers 7.12502
lthumb 35.0118 73.5146
rfemur -26.2727 -0.591869 32.1172
rtibia 45.1366
rfoot -20.8722 -34.6618
rtoes 19.0801
lfemur -44.5187 -17.7448 -0.795486
ltibia 64.9902
lfoot 11.3814 -6.96591
ltoes 24.4411
